<?xml version="1.0" encoding="UTF-8" standalone="no"?>
<svg
   xmlns:dc="http://purl.org/dc/elements/1.1/"
   xmlns:cc="http://creativecommons.org/ns#"
   xmlns:rdf="http://www.w3.org/1999/02/22-rdf-syntax-ns#"
   xmlns:svg="http://www.w3.org/2000/svg"
   xmlns="http://www.w3.org/2000/svg"
   xmlns:sodipodi="http://sodipodi.sourceforge.net/DTD/sodipodi-0.dtd"
   xmlns:inkscape="http://www.inkscape.org/namespaces/inkscape"
   sodipodi:docname="illustrationBg2.svg"
   inkscape:version="1.0 (4035a4fb49, 2020-05-01)"
   id="svg3757"
   version="1.1"
   viewBox="0 0 141.79276 128.73708"
   height="128.73708mm"
   width="141.79276mm">
  <defs
     id="defs3751">
    <clipPath
       id="clipPath923"
       clipPathUnits="userSpaceOnUse">
      <path
         id="path921"
         d="m 267.466,455.995 c 6.873,-9.493 9.887,-22.408 9.494,-34.405 v 0 c -0.597,-18.245 -7.135,-35.731 -9.857,-53.772 v 0 c -2.724,-18.039 -0.743,-38.556 12.492,-51.106 v 0 c 20.705,-19.642 58.854,-11.197 77.52,-32.776 v 0 c 16.7,-19.292 7.061,-49.315 13.744,-73.922 v 0 c 6.189,-22.744 26.981,-39.705 49.869,-45.327 v 0 c 22.875,-5.635 47.321,-1.193 68.972,8.096 v 0 c 13.876,5.941 26.966,13.862 41.468,18.055 v 0 c 14.502,4.193 31.334,4.107 43.361,-5.009 v 0 c 14.341,-10.876 17.691,-30.649 25.902,-46.665 v 0 c 13.031,-25.423 39.604,-41.992 67.545,-48.093 v 0 364.924 z" />
    </clipPath>
    <linearGradient
       id="linearGradient933"
       spreadMethod="pad"
       gradientTransform="matrix(401.93158,0,0,-401.93158,266.04471,273.5332)"
       gradientUnits="userSpaceOnUse"
       y2="0"
       x2="1"
       y1="0"
       x1="0">
      <stop
         id="stop929"
         offset="0"
         style="stop-opacity:1;stop-color:#8ee5b6" />
      <stop
         id="stop931"
         offset="1"
         style="stop-opacity:1;stop-color:#00c4d8" />
    </linearGradient>
    <linearGradient
       id="linearGradient983"
       spreadMethod="pad"
       gradientTransform="matrix(-36.726283,41.862822,-41.862822,-36.726283,118.87753,94.249643)"
       gradientUnits="userSpaceOnUse"
       y2="0"
       x2="1"
       y1="0"
       x1="0">
      <stop
         id="stop979"
         offset="0"
         style="stop-opacity:1;stop-color:#a7ebeb" />
      <stop
         id="stop981"
         offset="1"
         style="stop-opacity:1;stop-color:#a7ebeb" />
    </linearGradient>
    <clipPath
       id="clipPath923-5"
       clipPathUnits="userSpaceOnUse">
      <path
         id="path921-0"
         d="m 267.466,455.995 c 6.873,-9.493 9.887,-22.408 9.494,-34.405 v 0 c -0.597,-18.245 -7.135,-35.731 -9.857,-53.772 v 0 c -2.724,-18.039 -0.743,-38.556 12.492,-51.106 v 0 c 20.705,-19.642 58.854,-11.197 77.52,-32.776 v 0 c 16.7,-19.292 7.061,-49.315 13.744,-73.922 v 0 c 6.189,-22.744 26.981,-39.705 49.869,-45.327 v 0 c 22.875,-5.635 47.321,-1.193 68.972,8.096 v 0 c 13.876,5.941 26.966,13.862 41.468,18.055 v 0 c 14.502,4.193 31.334,4.107 43.361,-5.009 v 0 c 14.341,-10.876 17.691,-30.649 25.902,-46.665 v 0 c 13.031,-25.423 39.604,-41.992 67.545,-48.093 v 0 364.924 z" />
    </clipPath>
  </defs>
  <sodipodi:namedview
     inkscape:window-maximized="1"
     inkscape:window-y="-8"
     inkscape:window-x="-8"
     inkscape:window-height="1137"
     inkscape:window-width="1920"
     fit-margin-bottom="0"
     fit-margin-right="0"
     fit-margin-left="0"
     fit-margin-top="0"
     showgrid="false"
     inkscape:document-rotation="0"
     inkscape:current-layer="layer1"
     inkscape:document-units="mm"
     inkscape:cy="211.85415"
     inkscape:cx="285.09764"
     inkscape:zoom="0.35"
     inkscape:pageshadow="2"
     inkscape:pageopacity="0.0"
     borderopacity="1.0"
     bordercolor="#666666"
     pagecolor="#ffffff"
     id="base" />
  <metadata
     id="metadata3754">
    <rdf:RDF>
      <cc:Work
         rdf:about="">
        <dc:format>image/svg+xml</dc:format>
        <dc:type
           rdf:resource="http://purl.org/dc/dcmitype/StillImage" />
        <dc:title></dc:title>
      </cc:Work>
    </rdf:RDF>
  </metadata>
  <g
     transform="translate(-30.40125,-92.11359)"
     id="layer1"
     inkscape:groupmode="layer"
     inkscape:label="Layer 1">
    <g
       id="g2792"
       transform="rotate(180,106.59969,129.19874)">
      <g
         transform="matrix(0.35277777,0,0,-0.35277777,-52.848963,198.41171)"
         id="g917">
        <g
           clip-path="url(#clipPath923-5)"
           id="g919">
          <g
             id="g925">
            <g
               id="g927">
              <path
                 id="path935"
                 style="fill:url(#linearGradient933);stroke:none"
                 d="m 267.466,455.995 c 6.873,-9.493 9.887,-22.408 9.494,-34.405 v 0 c -0.597,-18.245 -7.135,-35.731 -9.857,-53.772 v 0 c -2.724,-18.039 -0.743,-38.556 12.492,-51.106 v 0 c 20.705,-19.642 58.854,-11.197 77.52,-32.776 v 0 c 16.7,-19.292 7.061,-49.315 13.744,-73.922 v 0 c 6.189,-22.744 26.981,-39.705 49.869,-45.327 v 0 c 22.875,-5.635 47.321,-1.193 68.972,8.096 v 0 c 13.876,5.941 26.966,13.862 41.468,18.055 v 0 c 14.502,4.193 31.334,4.107 43.361,-5.009 v 0 c 14.341,-10.876 17.691,-30.649 25.902,-46.665 v 0 c 13.031,-25.423 39.604,-41.992 67.545,-48.093 v 0 364.924 z" />
            </g>
          </g>
        </g>
      </g>
      <path
         id="path987"
         style="fill:url(#linearGradient983);stroke:none;stroke-width:0.352777"
         d="m 155.19468,121.62364 c -0.15029,0.41381 -0.46144,0.7814 -0.87489,0.93275 -0.45191,0.1651 -0.96556,0.0554 -1.39312,-0.16651 -0.70485,-0.36548 -1.24813,-1.04564 -1.40935,-1.82316 -0.1711,-0.8255 0.054,-2.03129 0.92992,-2.38054 0.60608,-0.24201 1.43687,-0.0159 1.92476,0.38699 0.51788,0.42686 0.80398,1.08444 0.9084,1.74731 0.0684,0.43462 0.0649,0.88971 -0.0857,1.30316 m -9.36449,1.11196 c -2.34527,1.4037 -7.8299,1.30633 -7.83202,-2.45569 -0.001,-3.17429 4.78014,-5.27438 7.43973,-5.21547 4.9844,0.11078 3.47557,5.82613 0.39229,7.67116 m 33.73684,30.48599 c -8.7577,-0.51364 -17.88547,-5.79896 -19.96087,-14.3256 -1.84361,-7.58683 1.92158,-16.59113 -2.7118,-22.87305 -3.56976,-4.84364 -10.86908,-5.54249 -16.42145,-3.2258 -5.55801,2.3114 -9.77512,6.91903 -13.81725,11.37215 -4.04248,4.45346 -8.29592,9.04028 -13.87933,11.285 -5.77323,2.32163 -12.63053,1.76178 -17.951829,-1.46896 -5.32658,-3.23603 -8.98382,-9.0611 -9.58496,-15.26081 -0.58032,-5.98911 1.52577,-11.8805 2.16747,-17.85973 0.64205,-5.984167 -0.79093,-13.010797 -6.08683,-15.866527 -4.530373,-2.44511 -10.062283,-0.92993 -15.085833,0.20002 -5.02885,1.13524 -11.09486,1.51024 -14.51575,-2.3368 -3.91936,-4.40725 -1.84397,-11.34181 0.86783,-16.580911 4.78226,-9.22514 11.14637,-18.63548 11.48539,-28.733747 h -22.56473 c 2.42429,3.348919 3.48757,7.905047 3.34892,12.137667 -0.2106,6.43608 -2.51671,12.60511 -3.47733,18.96922 -0.96061,6.364111 -0.26211,13.601351 4.4069,18.029061 7.30427,6.92926 20.76203,3.95005 27.34698,11.56229 5.891743,6.806137 2.49132,17.397587 4.848933,26.078387 2.18335,8.02323 9.5183,14.00704 17.59302,15.99036 8.069439,1.98755 16.693439,0.42086 24.331439,-2.85609 4.89514,-2.09585 9.513,-4.89021 14.62899,-6.3694 5.11598,-1.4792 11.05393,-1.44851 15.29644,1.76706 5.05953,3.83681 6.24134,10.81229 9.13835,16.46237 4.59705,8.96867 13.97106,14.81385 23.82838,16.96614 v -13.04184 c -1.07351,0.0466 -2.1523,0.0413 -3.2311,-0.0204" />
    </g>
  </g>
</svg>
