<?xml version="1.0" encoding="UTF-8" standalone="no"?>
<svg
   xmlns:dc="http://purl.org/dc/elements/1.1/"
   xmlns:cc="http://creativecommons.org/ns#"
   xmlns:rdf="http://www.w3.org/1999/02/22-rdf-syntax-ns#"
   xmlns:svg="http://www.w3.org/2000/svg"
   xmlns="http://www.w3.org/2000/svg"
   xmlns:sodipodi="http://sodipodi.sourceforge.net/DTD/sodipodi-0.dtd"
   xmlns:inkscape="http://www.inkscape.org/namespaces/inkscape"
   sodipodi:docname="illustration.svg"
   inkscape:version="1.0 (4035a4fb49, 2020-05-01)"
   id="svg3601"
   version="1.1"
   viewBox="0 0 125.76553 94.513611"
   height="94.513611mm"
   width="125.76553mm">
  <defs
     id="defs3595">
    <clipPath
       id="clipPath1053"
       clipPathUnits="userSpaceOnUse">
      <path
         id="path1051"
         d="M 0,500 H 750 V 0 H 0 Z" />
    </clipPath>
    <clipPath
       id="clipPath1255"
       clipPathUnits="userSpaceOnUse">
      <path
         id="path1253"
         d="m 364.715,389.349 h 16.032 v -11.742 h -16.032 z" />
    </clipPath>
    <clipPath
       id="clipPath1271"
       clipPathUnits="userSpaceOnUse">
      <path
         id="path1269"
         d="m 350.039,318.41 h 20.497 v -19.424 h -20.497 z" />
    </clipPath>
    <clipPath
       id="clipPath1291"
       clipPathUnits="userSpaceOnUse">
      <path
         id="path1289"
         d="m 634.098,230.658 h 18.895 v -21.102 h -18.895 z" />
    </clipPath>
    <clipPath
       id="clipPath1319"
       clipPathUnits="userSpaceOnUse">
      <path
         id="path1317"
         d="M 631.472,342.382 H 645.62 V 325.427 H 631.472 Z" />
    </clipPath>
    <clipPath
       id="clipPath1339"
       clipPathUnits="userSpaceOnUse">
      <path
         id="path1337"
         d="m 518.447,379.016 h 25.516 v -19.183 h -25.516 z" />
    </clipPath>
    <clipPath
       id="clipPath1371"
       clipPathUnits="userSpaceOnUse">
      <path
         id="path1369"
         d="m 432.289,381.504 h 32.252 v -14.748 h -32.252 z" />
    </clipPath>
    <clipPath
       id="clipPath1403"
       clipPathUnits="userSpaceOnUse">
      <path
         id="path1401"
         d="m 388.46,258.644 h 26.877 V 233.286 H 388.46 Z" />
    </clipPath>
  </defs>
  <sodipodi:namedview
     inkscape:window-maximized="1"
     inkscape:window-y="-8"
     inkscape:window-x="-8"
     inkscape:window-height="1137"
     inkscape:window-width="1920"
     inkscape:pagecheckerboard="true"
     fit-margin-bottom="0"
     fit-margin-right="0"
     fit-margin-left="0"
     fit-margin-top="0"
     showgrid="false"
     inkscape:document-rotation="0"
     inkscape:current-layer="g1049"
     inkscape:document-units="mm"
     inkscape:cy="244.28298"
     inkscape:cx="256.93559"
     inkscape:zoom="1.4"
     inkscape:pageshadow="2"
     inkscape:pageopacity="0.0"
     borderopacity="1.0"
     bordercolor="#666666"
     pagecolor="#ffffff"
     id="base" />
  <metadata
     id="metadata3598">
    <rdf:RDF>
      <cc:Work
         rdf:about="">
        <dc:format>image/svg+xml</dc:format>
        <dc:type
           rdf:resource="http://purl.org/dc/dcmitype/StillImage" />
        <dc:title></dc:title>
      </cc:Work>
    </rdf:RDF>
  </metadata>
  <g
     transform="translate(-29.343424,-113.76105)"
     id="layer1"
     inkscape:groupmode="layer"
     inkscape:label="Layer 1">
    <g
       id="g1047"
       transform="matrix(0.35277777,0,0,-0.35277777,-75.261941,261.81454)">
      <g
         clip-path="url(#clipPath1053)"
         id="g1049">
        <g
           transform="translate(597.1816,219.7891)"
           id="g1091">
          <path
             id="path1093"
             style="fill:#ffd524;fill-opacity:1;fill-rule:nonzero;stroke:none"
             d="m 0,0 43.32,67.993 c 1.299,2.039 4.002,2.633 6.035,1.338 l 4.464,-2.844 c 2.034,-1.296 2.631,-3.992 1.332,-6.031 l -43.319,-67.993 -7.541,-5.1 -7.076,-4.789 1.35,8.437 z" />
        </g>
        <g
           transform="translate(603.0977,216.0205)"
           id="g1095">
          <path
             id="path1097"
             style="fill:#ffc32e;fill-opacity:1;fill-rule:nonzero;stroke:none"
             d="m 0,0 45.668,71.679 2.235,-1.424 c 2.034,-1.295 2.631,-3.992 1.332,-6.031 L 5.916,-3.769 Z" />
        </g>
        <g
           transform="translate(597.1816,219.7891)"
           id="g1099">
          <path
             id="path1101"
             style="fill:#ffe2b2;fill-opacity:1;fill-rule:nonzero;stroke:none"
             d="m 0,0 11.832,-7.537 -7.541,-5.1 -7.076,-4.789 1.35,8.437 z" />
        </g>
        <g
           transform="translate(595.7471,210.7998)"
           id="g1103">
          <path
             id="path1105"
             style="fill:#3d4051;fill-opacity:1;fill-rule:nonzero;stroke:none"
             d="m 0,0 5.726,-3.647 -7.077,-4.79 z" />
        </g>
        <g
           transform="translate(636.0605,280.8125)"
           id="g1107">
          <path
             id="path1109"
             style="fill:#ff582a;fill-opacity:1;fill-rule:nonzero;stroke:none"
             d="M 0,0 4.441,6.97 C 5.74,9.009 8.443,9.603 10.477,8.308 L 14.94,5.463 c 2.034,-1.295 2.631,-3.992 1.332,-6.031 l -4.44,-6.97 z" />
        </g>
        <g
           transform="translate(636.0605,280.8125)"
           id="g1111">
          <path
             id="path1113"
             style="fill:#3d4051;fill-opacity:1;fill-rule:nonzero;stroke:none"
             d="M 0,0 11.832,-7.538 9.202,-11.666 -2.63,-4.128 Z" />
        </g>
        <g
           transform="translate(641.9766,277.0435)"
           id="g1115">
          <path
             id="path1117"
             style="fill:#ae1e0b;fill-opacity:1;fill-rule:nonzero;stroke:none"
             d="M 0,0 6.789,10.656 9.024,9.232 C 11.058,7.937 11.655,5.24 10.356,3.201 l -4.44,-6.97 z" />
        </g>
        <g
           transform="translate(321.1055,344.8086)"
           id="g1119">
          <path
             id="path1121"
             style="fill:#009fda;fill-opacity:1;fill-rule:nonzero;stroke:none"
             d="m 0,0 76.483,25.495 c 2.294,0.764 4.767,-0.478 5.53,-2.765 l 1.674,-5.022 c 0.761,-2.287 -0.474,-4.758 -2.768,-5.522 l -76.482,-25.495 -9.07,0.793 -8.512,0.741 6.366,5.7 z" />
        </g>
        <g
           transform="translate(323.3237,338.1543)"
           id="g1123">
          <path
             id="path1125"
             style="fill:#0071b8;fill-opacity:1;fill-rule:nonzero;stroke:none"
             d="m 0,0 80.629,26.877 0.839,-2.514 C 82.23,22.076 80.995,19.604 78.701,18.84 L 2.218,-6.654 Z" />
        </g>
        <g
           transform="translate(321.1055,344.8086)"
           id="g1127">
          <path
             id="path1129"
             style="fill:#ffe2b2;fill-opacity:1;fill-rule:nonzero;stroke:none"
             d="m 0,0 4.437,-13.309 -9.07,0.793 -8.512,0.741 6.366,5.7 z" />
        </g>
        <g
           transform="translate(314.3262,338.7334)"
           id="g1131">
          <path
             id="path1133"
             style="fill:#3d4051;fill-opacity:1;fill-rule:nonzero;stroke:none"
             d="M 0,0 2.146,-6.441 -6.365,-5.7 Z" />
        </g>
        <g
           transform="translate(389.749,367.6899)"
           id="g1135">
          <path
             id="path1137"
             style="fill:#ffd524;fill-opacity:1;fill-rule:nonzero;stroke:none"
             d="m 0,0 7.84,2.613 c 2.294,0.765 4.766,-0.477 5.529,-2.764 l 1.674,-5.022 c 0.762,-2.287 -0.474,-4.758 -2.768,-5.522 l -7.839,-2.614 z" />
        </g>
        <g
           transform="translate(389.749,367.6899)"
           id="g1139">
          <path
             id="path1141"
             style="fill:#3d4051;fill-opacity:1;fill-rule:nonzero;stroke:none"
             d="m 0,0 4.436,-13.309 -4.644,-1.548 -4.437,13.309 z" />
        </g>
        <g
           transform="translate(391.9668,361.0356)"
           id="g1143">
          <path
             id="path1145"
             style="fill:#ffc32e;fill-opacity:1;fill-rule:nonzero;stroke:none"
             d="m 0,0 11.986,3.996 0.839,-2.515 c 0.762,-2.287 -0.473,-4.758 -2.767,-5.522 l -7.84,-2.614 z" />
        </g>
        <g
           transform="translate(473.9658,339.7046)"
           id="g1147">
          <path
             id="path1149"
             style="fill:#3d4051;fill-opacity:1;fill-rule:nonzero;stroke:none"
             d="m 0,0 -53.576,-18.313 9.46,-27.255 c 19.777,-2.769 39.679,4.138 53.489,18.564 z" />
        </g>
        <g
           transform="translate(504.8555,348.4893)"
           id="g1151">
          <path
             id="path1153"
             style="fill:#3d4051;fill-opacity:1;fill-rule:nonzero;stroke:none"
             d="m 0,0 -48.254,-43.689 -64.944,4.401 6.758,6.109 3.636,3.297 37.859,34.283 50.958,-3.457 4.897,-0.335 z" />
        </g>
        <g
           transform="translate(495.7656,349.0981)"
           id="g1155">
          <path
             id="path1157"
             style="fill:#484d5b;fill-opacity:1;fill-rule:nonzero;stroke:none"
             d="m 0,0 -41.5,-37.568 -55.851,3.78 3.637,3.297 37.859,34.283 50.958,-3.457 z" />
        </g>
        <g
           transform="translate(389.6035,271.7603)"
           id="g1159">
          <path
             id="path1161"
             style="fill:#ffd524;fill-opacity:1;fill-rule:nonzero;stroke:none"
             d="m 0,0 -2.623,0.237 3.436,38.119 57,23.394 0.999,-2.437 L 3.293,36.526 Z" />
        </g>
        <g
           transform="translate(389.6836,285.9722)"
           id="g1163">
          <path
             id="path1165"
             style="fill:#ffd524;fill-opacity:1;fill-rule:nonzero;stroke:none"
             d="M 0,0 -0.539,0.171 C -2.163,-0.446 -7.818,-3.592 -8.932,-17.762 L 2.804,-19.581 C 5.84,-5.76 1.396,-1.089 0,0" />
        </g>
        <g
           transform="translate(633.5986,376.1445)"
           id="g1167">
          <path
             id="path1169"
             style="fill:#cadfef;fill-opacity:1;fill-rule:nonzero;stroke:none"
             d="M 0,0 C -1.342,2.562 -4.518,3.554 -7.079,2.212 -9.642,0.87 -10.634,-2.306 -9.292,-4.868 -7.95,-7.429 -4.774,-8.422 -2.213,-7.08 0.35,-5.738 1.342,-2.562 0,0 m -10.21,-5.348 c -1.606,3.068 -0.418,6.87 2.65,8.477 3.068,1.607 6.871,0.418 8.477,-2.649 1.607,-3.068 0.419,-6.871 -2.649,-8.477 -3.068,-1.607 -6.871,-0.419 -8.478,2.649" />
        </g>
        <g
           transform="translate(603.6123,347.1582)"
           id="g1171">
          <path
             id="path1173"
             style="fill:#ffffff;fill-opacity:1;fill-rule:nonzero;stroke:none"
             d="M 0,0 -11.156,21.299 -9.552,22.14 1.604,0.841 Z" />
        </g>
        <g
           transform="translate(571.3906,328.3159)"
           id="g1175">
          <path
             id="path1177"
             style="fill:#cadfef;fill-opacity:1;fill-rule:nonzero;stroke:none"
             d="M 0,0 -5.012,-5.052 0.893,-1.08 6.074,3.204 5.182,4.284 Z" />
        </g>
        <g
           transform="translate(626.6738,368.7017)"
           id="g1179">
          <path
             id="path1181"
             style="fill:#3d4051;fill-opacity:1;fill-rule:nonzero;stroke:none"
             d="m 0,0 -50.549,-41.79 -2.611,3.159 50.548,41.79 z" />
        </g>
        <g
           transform="translate(583.6094,330.7212)"
           id="g1183">
          <path
             id="path1185"
             style="fill:#ffffff;fill-opacity:1;fill-rule:nonzero;stroke:none"
             d="M 0,0 C -1.652,-1.366 -4.1,-1.134 -5.466,0.519 -6.832,2.171 -6.6,4.618 -4.947,5.984 -3.295,7.351 -0.848,7.119 0.519,5.466 1.885,3.813 1.652,1.366 0,0" />
        </g>
        <g
           transform="translate(582.5498,332.0039)"
           id="g1187">
          <path
             id="path1189"
             style="fill:#cadfef;fill-opacity:1;fill-rule:nonzero;stroke:none"
             d="M 0,0 C -0.944,-0.781 -2.343,-0.648 -3.124,0.296 -3.904,1.24 -3.771,2.639 -2.827,3.419 -1.883,4.2 -0.485,4.067 0.296,3.123 1.076,2.179 0.943,0.781 0,0" />
        </g>
        <g
           transform="translate(558.957,352.0532)"
           id="g1191">
          <path
             id="path1193"
             style="fill:#cadfef;fill-opacity:1;fill-rule:nonzero;stroke:none"
             d="M 0,0 -7.006,-1.243 -0.379,1.349 6.093,3.169 6.472,1.82 Z" />
        </g>
        <g
           transform="translate(623.6357,374.502)"
           id="g1195">
          <path
             id="path1197"
             style="fill:#3d4051;fill-opacity:1;fill-rule:nonzero;stroke:none"
             d="m 0,0 -63.137,-17.757 1.11,-3.946 63.136,17.757 z" />
        </g>
        <g
           transform="translate(636.8359,378.7417)"
           id="g1199">
          <path
             id="path1201"
             style="fill:#3d4051;fill-opacity:1;fill-rule:nonzero;stroke:none"
             d="m 0,0 -9.936,-5.204 0.743,-1.416 9.934,5.204 z" />
        </g>
        <g
           transform="translate(593.6543,355.5137)"
           id="g1203">
          <path
             id="path1205"
             style="fill:#cadfef;fill-opacity:1;fill-rule:nonzero;stroke:none"
             d="M 0,0 V 0 C -0.303,0.579 -0.08,1.293 0.499,1.596 L 8.592,5.835 C 9.17,6.138 9.885,5.915 10.188,5.336 10.491,4.758 10.268,4.043 9.689,3.74 L 1.597,-0.499 C 1.018,-0.802 0.303,-0.579 0,0" />
        </g>
        <g
           transform="translate(627.1201,367.8481)"
           id="g1207">
          <path
             id="path1209"
             style="fill:#ffffff;fill-opacity:1;fill-rule:nonzero;stroke:none"
             d="M 0,0 C -2.124,-1.113 -4.749,-0.292 -5.861,1.833 -6.975,3.957 -6.154,6.582 -4.029,7.694 -1.905,8.807 0.72,7.987 1.833,5.862 2.945,3.738 2.125,1.113 0,0" />
        </g>
        <g
           transform="translate(626.2354,369.5391)"
           id="g1211">
          <path
             id="path1213"
             style="fill:#cadfef;fill-opacity:1;fill-rule:nonzero;stroke:none"
             d="M 0,0 C -1.191,-0.624 -2.662,-0.164 -3.286,1.027 -3.91,2.218 -3.45,3.689 -2.259,4.312 -1.068,4.937 0.402,4.477 1.026,3.286 1.65,2.095 1.19,0.624 0,0" />
        </g>
        <g
           transform="translate(635.7197,376.4097)"
           id="g1215">
          <path
             id="path1217"
             style="fill:#ffffff;fill-opacity:1;fill-rule:nonzero;stroke:none"
             d="M 0,0 -0.694,1.326 C -1.1,2.1 -0.802,3.055 -0.028,3.46 l 13.553,7.1 c 0.774,0.404 1.73,0.106 2.135,-0.667 L 16.354,8.566 C 16.76,7.793 16.461,6.838 15.688,6.433 L 2.134,-0.667 C 1.36,-1.072 0.404,-0.773 0,0" />
        </g>
        <g
           transform="translate(8.7832377,-1.6071501)"
           id="g4689">
          <g
             id="g1219"
             transform="translate(464.64688,179.15104)">
            <path
               d="m 0,0 c 0,0 -8.125,19.605 -24.142,21.419 -16.015,1.812 -47.32,-16.62 -101.193,-16.62 l -10.557,-16.016 H 0 Z"
               style="fill:#cadfef;fill-opacity:1;fill-rule:nonzero;stroke:none"
               id="path1221" />
          </g>
          <g
             id="g1223"
             transform="translate(464.64688,179.15104)">
            <path
               d="m 0,0 c 0,0 1.339,17.176 -7.215,21.544 -10.607,5.416 -49.869,-6.189 -96.887,26.451 l -14.56,-28.635 c 0,0 17.261,-11.062 47.078,-14.196 C -33.484,1.159 -17.838,23.672 0,0"
               style="fill:#ffffff;fill-opacity:1;fill-rule:nonzero;stroke:none"
               id="path1225" />
          </g>
          <g
             id="g1227"
             transform="translate(464.65078,179.15104)">
            <path
               d="M 0,0 C 0,0 8.125,19.605 24.142,21.419 40.158,23.231 71.463,4.799 125.336,4.799 l 10.556,-16.016 H 0 Z"
               style="fill:#cadfef;fill-opacity:1;fill-rule:nonzero;stroke:none"
               id="path1229" />
          </g>
          <g
             id="g1231"
             transform="translate(464.64688,181.44604)">
            <path
               d="M 0,0 C 0,0 3.887,19.606 19.903,21.703 35.92,23.799 72.32,9.057 82.513,7.965 92.705,6.873 122.917,5.963 122.917,5.963 l 5.585,-8.258 c 0,0 -34.979,0.341 -45.625,1.524 C 69.772,0.685 41.38,17.065 22.088,14.335 2.795,11.604 0.611,-2.313 0.611,-2.313 Z"
               style="fill:#ffffff;fill-opacity:1;fill-rule:nonzero;stroke:none"
               id="path1233" />
          </g>
          <path
             d="m 609.76928,159.92614 h -287.566 v 8.008 h 287.566 z"
             style="fill:#8d5115;fill-opacity:1;fill-rule:nonzero;stroke:none"
             id="path1235" />
          <g
             id="g1237"
             transform="translate(474.84318,153.37374)">
            <path
               d="M 0,0 H -20.384 C -26.214,0 -30.94,4.727 -30.94,10.557 H 10.557 C 10.557,4.727 5.83,0 0,0"
               style="fill:#8d5115;fill-opacity:1;fill-rule:nonzero;stroke:none"
               id="path1239" />
          </g>
          <g
             id="g1241"
             transform="translate(473.05508,159.27414)">
            <path
               d="m 0,0 h -16.808 c -4.807,0 -8.704,3.897 -8.704,8.704 L -8.404,22.175 8.704,8.704 C 8.704,3.897 4.808,0 0,0"
               style="fill:#774206;fill-opacity:1;fill-rule:nonzero;stroke:none"
               id="path1243" />
          </g>
          <g
             id="g1245"
             transform="translate(481.75528,167.97824)">
            <path
               d="M 0,0 C 0,-1.907 -0.612,-3.684 -1.66,-5.125 L -17.108,7.032 -32.558,-5.125 c -1.047,1.441 -1.659,3.218 -1.659,5.125 l 17.109,13.468 z"
               style="fill:#ffd524;fill-opacity:1;fill-rule:nonzero;stroke:none"
               id="path1247" />
          </g>
        </g>
        <g
           id="g1249">
          <g
             id="g1251" />
          <g
             id="g1263">
            <g
               id="g1261"
               clip-path="url(#clipPath1255)">
              <g
                 id="g1259"
                 transform="translate(380.418,379.7651)">
                <path
                   id="path1257"
                   style="fill:#00c4d8;fill-opacity:1;fill-rule:nonzero;stroke:none"
                   d="m 0,0 c -0.84,-1.848 -3.027,-2.668 -4.875,-1.829 l -8.479,3.853 c -0.261,0.119 -0.376,0.427 -0.258,0.688 0.119,0.262 0.427,0.377 0.689,0.258 l 8.478,-3.852 c 1.326,-0.603 2.895,-0.014 3.498,1.312 0.603,1.327 0.014,2.896 -1.312,3.499 l -9.794,4.45 c -0.927,0.421 -2.024,0.01 -2.445,-0.917 -0.421,-0.926 -0.009,-2.024 0.917,-2.444 L -5.487,1.34 c 0.546,-0.249 1.193,-0.006 1.441,0.54 0.248,0.546 0.006,1.193 -0.541,1.441 l -5.989,2.721 c -0.261,0.12 -0.377,0.427 -0.258,0.689 0.119,0.262 0.427,0.377 0.688,0.258 l 5.99,-2.721 C -3.089,3.782 -2.614,2.518 -3.1,1.45 -3.585,0.382 -4.849,-0.092 -5.917,0.393 l -8.094,3.678 c -1.449,0.658 -2.092,2.372 -1.433,3.821 0.658,1.449 2.372,2.092 3.82,1.434 L -1.829,4.875 C 0.02,4.035 0.84,1.849 0,0" />
              </g>
            </g>
          </g>
        </g>
        <g
           id="g1265">
          <g
             id="g1267" />
          <g
             id="g1283">
            <g
               id="g1281"
               clip-path="url(#clipPath1271)">
              <g
                 id="g1275"
                 transform="translate(366.3086,301.6157)">
                <path
                   id="path1273"
                   style="fill:#00c4d8;fill-opacity:1;fill-rule:nonzero;stroke:none"
                   d="m 0,0 c -0.717,-0.61 -2.346,-0.241 -4.288,1.017 0.437,0.637 0.859,1.354 1.261,2.125 1.033,0.221 2.009,0.5 2.891,0.835 C 0.626,2.058 0.669,0.569 0,0 m -9.467,-1.552 c -0.875,0.349 -1.31,1.965 -1.105,4.273 0.856,-0.098 1.779,-0.144 2.76,-0.126 0.698,-0.689 1.399,-1.291 2.088,-1.809 -1.44,-1.815 -2.868,-2.687 -3.743,-2.338 m -5.798,7.644 c -0.093,0.873 0.963,1.924 2.837,2.79 0.409,-0.85 0.925,-1.724 1.522,-2.595 -0.24,-0.836 -0.427,-1.646 -0.549,-2.41 -2.274,0.426 -3.709,1.279 -3.81,2.215 m 3.222,8.072 c 0.484,0.412 1.384,0.38 2.516,-0.071 0.542,-0.217 1.142,-0.541 1.77,-0.947 -0.435,-0.636 -0.856,-1.351 -1.256,-2.12 -1.058,-0.222 -2.031,-0.503 -2.9,-0.831 -0.074,0.186 -0.146,0.371 -0.208,0.552 -0.562,1.651 -0.534,2.898 0.078,3.417 m 9.467,1.552 c 0.874,-0.349 1.309,-1.962 1.106,-4.266 -0.854,0.098 -1.781,0.138 -2.76,0.12 -0.697,0.687 -1.397,1.297 -2.084,1.814 1.439,1.811 2.864,2.681 3.738,2.332 M -1.523,6.648 C -1.142,6.042 -0.812,5.454 -0.541,4.892 -1.138,4.667 -1.784,4.47 -2.461,4.299 c 0.171,0.377 0.339,0.763 0.499,1.162 0.16,0.401 0.303,0.796 0.439,1.187 m -1.739,3.91 c 0.588,-0.017 1.144,-0.058 1.669,-0.12 -0.075,-0.481 -0.178,-0.986 -0.304,-1.509 -0.253,0.328 -0.516,0.656 -0.794,0.984 -0.189,0.222 -0.38,0.435 -0.571,0.645 m -4.479,0.703 c 0.268,0.467 0.542,0.903 0.819,1.303 0.423,-0.315 0.855,-0.669 1.293,-1.062 -0.284,-0.021 -0.568,-0.043 -0.858,-0.074 -0.428,-0.046 -0.845,-0.104 -1.254,-0.167 M -10.52,7.515 c -0.373,0.591 -0.706,1.178 -0.984,1.753 0.584,0.22 1.228,0.42 1.922,0.596 -0.171,-0.377 -0.339,-0.762 -0.499,-1.162 -0.16,-0.4 -0.303,-0.795 -0.439,-1.187 m 1.745,-3.911 c -0.59,0.017 -1.149,0.057 -1.675,0.12 0.075,0.483 0.178,0.989 0.305,1.514 0.255,-0.332 0.517,-0.662 0.793,-0.987 0.191,-0.224 0.384,-0.435 0.577,-0.647 M -4.301,2.906 C -4.57,2.437 -4.845,1.999 -5.123,1.597 -5.547,1.914 -5.98,2.27 -6.42,2.664 c 0.286,0.021 0.571,0.041 0.864,0.072 0.425,0.046 0.842,0.105 1.255,0.17 M -5.663,3.729 C -6.265,3.665 -6.845,3.628 -7.408,3.608 -7.803,4.01 -8.198,4.437 -8.59,4.897 c -0.438,0.516 -0.846,1.04 -1.223,1.565 0.186,0.606 0.405,1.231 0.66,1.87 0.255,0.639 0.527,1.244 0.81,1.812 0.622,0.119 1.278,0.217 1.963,0.291 0.602,0.064 1.18,0.098 1.743,0.117 C -4.241,10.15 -3.845,9.728 -3.453,9.266 -3.006,8.742 -2.599,8.219 -2.229,7.704 -2.416,7.097 -2.635,6.472 -2.89,5.832 -3.145,5.193 -3.417,4.589 -3.698,4.022 -4.334,3.9 -4.991,3.801 -5.663,3.729 M 1.348,9.752 C 2.48,9.301 3.154,8.704 3.222,8.072 3.308,7.273 2.47,6.351 0.925,5.54 0.756,5.452 0.576,5.367 0.395,5.284 -0.009,6.12 -0.522,6.993 -1.136,7.882 -0.897,8.716 -0.71,9.523 -0.588,10.285 0.148,10.147 0.806,9.969 1.348,9.752 M 0.801,4.371 c 0.201,0.092 0.401,0.186 0.588,0.284 1.956,1.027 2.96,2.278 2.826,3.524 -0.163,1.52 -1.964,2.631 -4.676,3.12 0.26,2.744 -0.324,4.778 -1.745,5.345 -1.42,0.567 -3.244,-0.506 -4.944,-2.676 -2.305,1.514 -4.375,1.949 -5.54,0.958 -0.955,-0.812 -1.088,-2.411 -0.377,-4.502 0.068,-0.2 0.149,-0.405 0.231,-0.611 -2.252,-1.033 -3.574,-2.407 -3.422,-3.828 0.114,-1.069 1.037,-1.937 2.518,-2.528 0.624,-0.249 1.355,-0.442 2.159,-0.587 -0.262,-2.747 0.322,-4.783 1.744,-5.35 1.42,-0.567 3.246,0.507 4.947,2.679 0.682,-0.448 1.347,-0.811 1.97,-1.06 1.481,-0.591 2.748,-0.597 3.567,0.099 1.089,0.926 1.076,2.833 0.154,5.133" />
              </g>
              <g
                 id="g1279"
                 transform="translate(361.0098,310.5078)">
                <path
                   id="path1277"
                   style="fill:#00c4d8;fill-opacity:1;fill-rule:nonzero;stroke:none"
                   d="m 0,0 c -1,0.399 -2.134,-0.088 -2.533,-1.087 -0.399,-1 0.088,-2.134 1.088,-2.534 1,-0.399 2.133,0.089 2.532,1.088 C 1.487,-1.533 1,-0.399 0,0" />
              </g>
            </g>
          </g>
        </g>
        <g
           id="g1285">
          <g
             id="g1287" />
          <g
             id="g1311">
            <g
               id="g1309"
               clip-path="url(#clipPath1291)">
              <g
                 id="g1295"
                 transform="translate(637.5615,223.834)">
                <path
                   id="path1293"
                   style="fill:#00c4d8;fill-opacity:1;fill-rule:nonzero;stroke:none"
                   d="M 0,0 C -0.755,-2.56 0.477,-5.228 2.792,-6.368 L 2.033,-8.939 c -1.186,-0.036 -2.271,-0.775 -2.706,-1.93 l 5.699,-1.682 c 0.263,1.206 -0.248,2.416 -1.223,3.09 l 0.758,2.57 c 2.563,-0.298 5.046,1.274 5.801,3.833 L 12.376,3.767 2.014,6.824 Z" />
              </g>
              <g
                 id="g1299"
                 transform="translate(643.0059,210.6494)">
                <path
                   id="path1297"
                   style="fill:#00c4d8;fill-opacity:1;fill-rule:nonzero;stroke:none"
                   d="M 0,0 -6.812,2.01 C -7.107,2.097 -7.417,1.929 -7.505,1.633 -7.592,1.337 -7.423,1.027 -7.127,0.939 L -0.315,-1.07 C -0.021,-1.157 0.29,-0.988 0.377,-0.693 0.464,-0.397 0.295,-0.087 0,0" />
              </g>
              <g
                 id="g1303"
                 transform="translate(634.2207,227.7783)">
                <path
                   id="path1301"
                   style="fill:#00c4d8;fill-opacity:1;fill-rule:nonzero;stroke:none"
                   d="m 0,0 c -0.469,-1.588 0.442,-3.262 2.031,-3.729 l 0.595,-0.176 0.337,1.142 -0.595,0.176 C 1.41,-2.305 0.86,-1.295 1.143,-0.337 1.426,0.621 2.436,1.171 3.394,0.888 L 3.988,0.712 4.325,1.854 3.73,2.03 C 2.143,2.499 0.469,1.588 0,0" />
              </g>
              <g
                 id="g1307"
                 transform="translate(650.8398,226.0059)">
                <path
                   id="path1305"
                   style="fill:#00c4d8;fill-opacity:1;fill-rule:nonzero;stroke:none"
                   d="m 0,0 -0.595,0.176 -0.338,-1.143 0.596,-0.176 C 0.621,-1.425 1.171,-2.435 0.888,-3.393 0.605,-4.352 -0.404,-4.9 -1.362,-4.618 l -0.596,0.176 -0.337,-1.143 0.596,-0.175 C -0.111,-6.229 1.562,-5.318 2.03,-3.73 2.499,-2.142 1.588,-0.469 0,0" />
              </g>
            </g>
          </g>
        </g>
        <g
           id="g1313">
          <g
             id="g1315" />
          <g
             id="g1331">
            <g
               id="g1329"
               clip-path="url(#clipPath1319)">
              <g
                 id="g1323"
                 transform="translate(642.0947,327.5571)">
                <path
                   id="path1321"
                   style="fill:#00c4d8;fill-opacity:1;fill-rule:nonzero;stroke:none"
                   d="M 0,0 C -1.796,-1.024 -4.08,-0.4 -5.104,1.396 -5.112,1.408 -5.109,1.418 -5.116,1.431 L 1.371,5.133 C 1.378,5.12 1.388,5.118 1.396,5.105 2.42,3.309 1.796,1.025 0,0 M -1.494,8.611 -3.442,12.025 -8.608,9.078 -6.66,5.663 C -7.442,4.11 -7.455,2.208 -6.527,0.583 -5.056,-1.996 -1.769,-2.895 0.812,-1.422 3.392,0.05 4.29,3.337 2.818,5.917 1.891,7.542 0.24,8.495 -1.494,8.611" />
              </g>
              <g
                 id="g1327"
                 transform="translate(633.0596,337.5117)">
                <path
                   id="path1325"
                   style="fill:#00c4d8;fill-opacity:1;fill-rule:nonzero;stroke:none"
                   d="M 0,0 5.059,2.887 C 5.567,3.177 5.745,3.826 5.454,4.335 5.164,4.844 4.516,5.021 4.007,4.731 L -1.052,1.844 C -1.562,1.554 -1.739,0.905 -1.448,0.396 -1.157,-0.113 -0.509,-0.291 0,0" />
              </g>
            </g>
          </g>
        </g>
        <g
           id="g1333">
          <g
             id="g1335" />
          <g
             id="g1363">
            <g
               id="g1361"
               clip-path="url(#clipPath1339)">
              <g
                 id="g1343"
                 transform="translate(533.6406,374.2695)">
                <path
                   id="path1341"
                   style="fill:#00c4d8;fill-opacity:1;fill-rule:nonzero;stroke:none"
                   d="m 0,0 2.144,-2.474 -0.658,-0.57 c -0.863,0.797 -1.903,1.308 -2.997,1.532 l 0.066,0.906 c 0.032,0.455 -0.31,0.85 -0.765,0.883 -0.455,0.032 -0.851,-0.31 -0.883,-0.765 L -3.158,-1.394 C -4.279,-1.461 -5.39,-1.822 -6.362,-2.496 l -0.552,0.637 2.475,2.143 c -0.755,0.676 -1.714,1.02 -2.678,1.019 l 0.443,1.349 c 0.182,0.556 0.717,0.915 1.3,0.873 L 1.36,3.043 C 1.954,3 2.434,2.56 2.526,1.973 L 2.738,0.637 C 1.802,0.759 0.826,0.551 0,0 m 1.585,-6.662 -4.079,-2.117 c -0.117,-0.061 -0.244,-0.086 -0.369,-0.077 -0.169,0.012 -0.331,0.085 -0.454,0.213 l -2.889,3.023 c -0.266,0.278 -0.256,0.718 0.021,0.984 0.279,0.264 0.718,0.255 0.985,-0.023 l 2.528,-2.646 3.616,1.878 C 1.285,-5.25 1.705,-5.383 1.882,-5.724 2.059,-6.065 1.926,-6.485 1.585,-6.662 M 5.198,-6 c 1.326,1.48 1.38,3.749 0.044,5.29 -0.43,0.496 -0.955,0.859 -1.524,1.088 L 3.442,2.118 C 3.281,3.134 2.452,3.895 1.427,3.968 L -5.308,4.45 C -6.316,4.522 -7.24,3.902 -7.556,2.941 l -0.58,-1.77 c -0.571,-0.15 -1.117,-0.43 -1.593,-0.843 -1.542,-1.335 -1.813,-3.588 -0.71,-5.242 l 2.474,2.144 0.554,-0.64 c -1.988,-2.153 -2.222,-5.413 -0.561,-7.828 l -1.172,-1.015 c -0.29,-0.252 -0.321,-0.691 -0.069,-0.981 0.251,-0.29 0.691,-0.322 0.981,-0.07 l 1.169,1.012 c 2.153,-2.003 5.424,-2.241 7.846,-0.575 l 1.152,-1.33 c 0.252,-0.29 0.691,-0.322 0.981,-0.07 0.29,0.251 0.322,0.691 0.07,0.981 l -1.149,1.327 c 2.009,2.159 2.243,5.443 0.562,7.866 l 0.656,0.568 z" />
              </g>
              <g
                 id="g1347"
                 transform="translate(539.7373,376.3701)">
                <path
                   id="path1345"
                   style="fill:#00c4d8;fill-opacity:1;fill-rule:nonzero;stroke:none"
                   d="M 0,0 C -0.498,0.331 -1.021,-0.435 -0.524,-0.765 0.786,-1.635 1.542,-3.072 1.489,-4.646 1.47,-5.242 2.395,-5.311 2.414,-4.713 2.478,-2.814 1.586,-1.053 0,0" />
              </g>
              <g
                 id="g1351"
                 transform="translate(541.5449,377.5337)">
                <path
                   id="path1349"
                   style="fill:#00c4d8;fill-opacity:1;fill-rule:nonzero;stroke:none"
                   d="M 0,0 C -0.498,0.331 -1.021,-0.435 -0.523,-0.766 0.786,-1.635 1.542,-3.072 1.489,-4.647 1.47,-5.242 2.395,-5.311 2.414,-4.713 2.478,-2.814 1.586,-1.053 0,0" />
              </g>
              <g
                 id="g1355"
                 transform="translate(523.1348,377.5586)">
                <path
                   id="path1353"
                   style="fill:#00c4d8;fill-opacity:1;fill-rule:nonzero;stroke:none"
                   d="M 0,0 C 0.54,0.256 0.949,-0.576 0.41,-0.833 -1.011,-1.507 -1.963,-2.821 -2.136,-4.387 -2.201,-4.979 -3.127,-4.916 -3.061,-4.321 -2.853,-2.433 -1.72,-0.816 0,0" />
              </g>
              <g
                 id="g1359"
                 transform="translate(521.5117,378.9673)">
                <path
                   id="path1357"
                   style="fill:#00c4d8;fill-opacity:1;fill-rule:nonzero;stroke:none"
                   d="m 0,0 c 0.54,0.256 0.949,-0.576 0.409,-0.832 -1.42,-0.674 -2.373,-1.989 -2.546,-3.555 -0.064,-0.592 -0.99,-0.528 -0.925,0.066 C -2.854,-2.432 -1.72,-0.816 0,0" />
              </g>
            </g>
          </g>
        </g>
        <g
           id="g1365">
          <g
             id="g1367" />
          <g
             id="g1395">
            <g
               id="g1393"
               clip-path="url(#clipPath1371)">
              <g
                 id="g1375"
                 transform="translate(437.9404,375.1646)">
                <path
                   id="path1373"
                   style="fill:#00c4d8;fill-opacity:1;fill-rule:nonzero;stroke:none"
                   d="m 0,0 0.329,-1.492 -3.781,-0.833 0.294,-1.339 3.414,0.752 0.328,-1.492 -3.413,-0.752 0.297,-1.349 3.884,0.855 0.328,-1.492 -5.754,-1.267 -1.577,7.165 z" />
              </g>
              <g
                 id="g1379"
                 transform="translate(444.335,372.0176)">
                <path
                   id="path1377"
                   style="fill:#00c4d8;fill-opacity:1;fill-rule:nonzero;stroke:none"
                   d="m 0,0 0.256,-1.165 -4.558,-1.003 -0.257,1.165 z M -0.486,2.208 -0.229,1.042 -4.788,0.039 -5.045,1.205 Z" />
              </g>
              <g
                 id="g1383"
                 transform="translate(454.583,374.9702)">
                <path
                   id="path1381"
                   style="fill:#00c4d8;fill-opacity:1;fill-rule:nonzero;stroke:none"
                   d="m 0,0 0.768,-3.485 -1.82,-0.401 -0.653,2.964 c -0.139,0.634 -0.569,0.936 -1.132,0.812 -0.642,-0.152 -0.928,-0.751 -0.767,-1.476 l 0.6,-2.729 -1.819,-0.401 -0.653,2.964 c -0.139,0.634 -0.57,0.936 -1.132,0.812 -0.642,-0.152 -0.938,-0.753 -0.779,-1.479 l 0.601,-2.729 -1.809,-0.398 -1.218,5.529 1.81,0.398 0.2,-0.909 c 0.237,0.727 0.785,1.202 1.583,1.377 0.9,0.198 1.665,-0.116 2.112,-0.832 0.177,0.897 0.76,1.464 1.66,1.662 C -1.253,1.942 -0.286,1.298 0,0" />
              </g>
              <g
                 id="g1387"
                 transform="translate(458.1709,376.3921)">
                <path
                   id="path1385"
                   style="fill:#00c4d8;fill-opacity:1;fill-rule:nonzero;stroke:none"
                   d="m 0,0 c -0.654,-0.144 -0.984,-0.784 -0.809,-1.582 0.178,-0.807 0.745,-1.239 1.399,-1.095 0.48,0.105 0.815,0.383 0.946,0.862 L 3.043,-2.288 C 2.791,-3.232 1.997,-3.911 0.821,-4.169 c -1.706,-0.376 -3.086,0.488 -3.458,2.174 -0.377,1.718 0.518,3.104 2.235,3.482 C 0.712,1.732 1.696,1.445 2.359,0.723 L 1.21,-0.333 C 0.886,-0.03 0.471,0.104 0,0" />
              </g>
              <g
                 id="g1391"
                 transform="translate(462.6572,380.2778)">
                <path
                   id="path1389"
                   style="fill:#00c4d8;fill-opacity:1;fill-rule:nonzero;stroke:none"
                   d="M 0,0 C -0.049,0.223 -0.247,0.314 -0.546,0.248 -0.88,0.175 -1.258,-0.117 -1.568,-0.523 l -0.578,0.702 c 0.442,0.502 0.964,0.863 1.562,0.994 C 0.248,1.356 0.946,1.056 1.09,0.406 1.187,-0.04 0.95,-0.577 0.595,-1.141 l -0.658,-1.029 1.757,0.387 0.19,-0.861 -3.128,-0.689 -0.162,0.708 1.156,1.864 C -0.073,-0.477 0.038,-0.176 0,0" />
              </g>
            </g>
          </g>
        </g>
        <g
           id="g1397">
          <g
             id="g1399" />
          <g
             id="g1415">
            <g
               id="g1413"
               clip-path="url(#clipPath1403)">
              <g
                 id="g1407"
                 transform="translate(400.0703,255.2485)">
                <path
                   id="path1405"
                   style="fill:#00c4d8;fill-opacity:1;fill-rule:nonzero;stroke:none"
                   d="m 0,0 c 0.344,-0.803 -0.029,-1.733 -0.832,-2.076 -0.803,-0.343 -1.733,0.03 -2.076,0.832 -0.344,0.802 0.029,1.733 0.832,2.076 C -1.273,1.175 -0.343,0.802 0,0 M 4.601,-0.82 C 4.944,-1.623 4.571,-2.553 3.769,-2.896 2.967,-3.24 2.036,-2.867 1.692,-2.064 1.35,-1.262 1.723,-0.331 2.524,0.012 3.327,0.355 4.258,-0.018 4.601,-0.82 m -7.126,-5.578 c -0.802,-0.344 -1.734,0.029 -2.077,0.832 -0.342,0.802 0.032,1.73 0.834,2.073 0.802,0.344 1.732,-0.027 2.075,-0.829 0.343,-0.803 -0.03,-1.733 -0.832,-2.076 m 3.276,-1.941 c 0.344,-0.803 -0.028,-1.73 -0.83,-2.073 -0.803,-0.343 -1.733,0.027 -2.075,0.829 -0.344,0.803 0.03,1.734 0.832,2.077 0.802,0.343 1.73,-0.032 2.073,-0.833 m 9.29,0.274 C 10.242,-8.673 9.911,-9.328 9.303,-9.529 8.694,-9.73 8.039,-9.396 7.842,-8.79 c -0.2,0.609 0.13,1.264 0.738,1.464 0.608,0.201 1.263,-0.13 1.461,-0.739 m -5.607,-4.667 c -0.802,-0.343 -1.732,0.027 -2.076,0.83 -0.343,0.805 0.031,1.733 0.833,2.076 0.802,0.343 1.732,-0.027 2.077,-0.833 0.342,-0.801 -0.032,-1.729 -0.834,-2.073 M -1.954,2.454 c -2.152,-1.247 -3.615,-3.592 -3.807,-6.126 -0.188,-2.495 0.822,-5.036 2.591,-6.809 1.066,-1.065 2.376,-1.858 3.763,-2.456 3.808,-1.644 8.908,-1.934 12.392,0.614 1.073,0.784 2.16,2.034 2.058,3.463 -0.114,1.593 -1.542,1.895 -2.736,2.458 -1.094,0.517 -1.838,1.58 -2.429,2.594 C 8.558,-1.546 7.4,0.988 5.186,2.387 3.784,3.272 2.058,3.565 0.419,3.303 -0.435,3.166 -1.233,2.871 -1.954,2.454" />
              </g>
              <g
                 id="g1411"
                 transform="translate(388.4609,241.7383)">
                <path
                   id="path1409"
                   style="fill:#00c4d8;fill-opacity:1;fill-rule:nonzero;stroke:none"
                   d="M 0,0 C -0.005,-0.017 0.004,-0.037 0.019,-0.059 0.021,-0.063 0.026,-0.069 0.031,-0.075 0.046,-0.093 0.066,-0.112 0.093,-0.133 0.101,-0.14 0.106,-0.146 0.116,-0.152 0.149,-0.178 0.19,-0.204 0.237,-0.232 0.263,-0.248 0.292,-0.264 0.319,-0.279 0.346,-0.294 0.373,-0.31 0.401,-0.324 0.441,-0.346 0.482,-0.366 0.527,-0.39 0.531,-0.392 0.536,-0.394 0.54,-0.396 2.843,-1.539 12.039,-4.495 17.791,-6.127 L 17.79,-6.128 c 0.139,-0.039 0.275,-0.077 0.409,-0.115 0.009,-0.002 0.018,-0.005 0.026,-0.007 0.4,-0.112 0.902,-0.242 1.423,-0.365 0.313,-0.074 0.633,-0.147 0.944,-0.212 0.103,-0.023 0.205,-0.043 0.305,-0.064 0.301,-0.06 0.586,-0.112 0.837,-0.151 0.168,-0.026 0.321,-0.046 0.453,-0.059 0.017,-0.002 0.03,-0.003 0.046,-0.003 0.15,-0.426 0.506,-0.786 1.05,-0.895 0.108,-0.021 0.212,-0.031 0.317,-0.03 0.435,10e-4 0.836,0.151 1.25,0.24 0.671,0.143 1.219,-0.057 1.733,-0.431 0.028,-0.02 0.059,-0.041 0.086,-0.064 0.071,-0.053 0.138,-0.109 0.207,-0.168 -0.143,0.625 -0.389,1.246 -0.793,1.791 -0.408,0.547 -0.979,1.014 -1.65,1.264 -0.466,0.172 -1.003,0.235 -1.43,0.045 -0.107,-0.047 -0.204,-0.105 -0.29,-0.169 C 22.416,-5.374 21.959,-5.19 21.437,-5 20.57,-4.682 19.536,-4.346 18.816,-4.144 12.226,-2.294 0.163,0.582 0,0" />
              </g>
            </g>
          </g>
        </g>
        <g
           transform="translate(345.3345,407.5488)"
           id="g1417">
          <path
             id="path1419"
             style="fill:#ffffff;fill-opacity:1;fill-rule:nonzero;stroke:none"
             d="m 0,0 -1.965,-2.196 0.694,-2.863 -2.695,1.19 -2.508,-1.545 0.299,2.931 -2.245,1.908 2.88,0.621 1.122,2.725 1.48,-2.547 z" />
        </g>
        <g
           transform="translate(417.6982,283.3213)"
           id="g1421">
          <path
             id="path1423"
             style="fill:#ffffff;fill-opacity:1;fill-rule:nonzero;stroke:none"
             d="m 0,0 -1.966,-2.196 0.695,-2.863 -2.695,1.19 -2.509,-1.545 0.299,2.931 -2.244,1.908 2.88,0.621 1.121,2.725 1.481,-2.547 z" />
        </g>
        <g
           transform="translate(496.8994,370.0332)"
           id="g1425">
          <path
             id="path1427"
             style="fill:#ffffff;fill-opacity:1;fill-rule:nonzero;stroke:none"
             d="m 0,0 -2.889,-0.581 -1.16,-2.708 -1.444,2.568 -2.935,0.266 1.996,2.167 -0.653,2.873 2.678,-1.229 2.53,1.511 -0.341,-2.927 z" />
        </g>
        <g
           transform="translate(650.7168,403.7524)"
           id="g1429">
          <path
             id="path1431"
             style="fill:#ffffff;fill-opacity:1;fill-rule:nonzero;stroke:none"
             d="m 0,0 -2.889,-0.58 -1.159,-2.709 -1.444,2.568 -2.935,0.266 1.996,2.167 -0.654,2.873 2.678,-1.228 2.53,1.51 -0.341,-2.927 z" />
        </g>
        <g
           transform="translate(620.6592,304.4355)"
           id="g1433">
          <path
             id="path1435"
             style="fill:#ffffff;fill-opacity:1;fill-rule:nonzero;stroke:none"
             d="m 0,0 -2.889,-0.581 -1.159,-2.708 -1.444,2.568 -2.935,0.266 1.996,2.167 -0.654,2.873 2.678,-1.229 2.53,1.51 -0.341,-2.926 z" />
        </g>
        <g
           transform="translate(652.7588,188.8467)"
           id="g1437">
          <path
             id="path1439"
             style="fill:#ffffff;fill-opacity:1;fill-rule:nonzero;stroke:none"
             d="m 0,0 -2.889,-0.58 -1.16,-2.708 -1.444,2.567 -2.934,0.266 1.995,2.168 -0.653,2.873 2.678,-1.229 2.53,1.51 -0.341,-2.927 z" />
        </g>
        <g
           transform="translate(320.9653,303.7324)"
           id="g1441">
          <path
             id="path1443"
             style="fill:#ffffff;fill-opacity:1;fill-rule:nonzero;stroke:none"
             d="m 0,0 -2.889,-0.58 -1.16,-2.709 -1.444,2.568 -2.934,0.266 1.995,2.167 -0.653,2.873 2.678,-1.228 2.53,1.51 -0.341,-2.927 z" />
        </g>
        <g
           transform="translate(544.4307,323.6392)"
           id="g1445">
          <path
             id="path1447"
             style="fill:#ff582a;fill-opacity:1;fill-rule:nonzero;stroke:none"
             d="m 0,0 -5.48,-0.952 -4.38,3.431 c -2.626,2.057 -6.105,2.89 -9.29,1.897 -3.844,-1.197 -8.212,-5.021 -10.312,-15.526 -4.199,-21.012 15.338,-24.192 15.338,-24.192 0,0 18.719,-6.435 24.953,14.065 3.117,10.25 1.075,15.685 -1.745,18.557 C 6.746,-0.339 3.287,0.571 0,0" />
        </g>
        <g
           transform="translate(536.1807,287.3647)"
           id="g1449">
          <path
             id="path1451"
             style="fill:#ae1e0b;fill-opacity:1;fill-rule:nonzero;stroke:none"
             d="m 0,0 c -3.432,0.096 -5.878,0.939 -5.878,0.939 0,0 -19.532,3.181 -15.329,24.185 2.103,10.51 6.469,14.32 10.31,15.523 3.183,0.994 6.661,0.168 9.29,-1.894 l 1.566,-1.226 C -3.705,36.117 -7.714,32.167 -9.705,22.233 -12.392,8.821 -5.408,2.68 0,0" />
        </g>
        <g
           transform="translate(548.0254,329.9551)"
           id="g1453">
          <path
             id="path1455"
             style="fill:#3d4051;fill-opacity:1;fill-rule:nonzero;stroke:none"
             d="m 0,0 c -6.574,-0.332 -11.796,-4.987 -12.682,-11.559 -0.279,-2.068 2.911,-2.83 3.193,-0.735 0.69,5.12 4.379,8.757 9.598,9.02 C 2.212,-3.167 2.112,0.107 0,0" />
        </g>
        <g
           transform="translate(535.4805,334.0513)"
           id="g1457">
          <path
             id="path1459"
             style="fill:#008c41;fill-opacity:1;fill-rule:nonzero;stroke:none"
             d="m 0,0 c 3.119,-5.213 0.715,-12.391 0.715,-12.391 0,0 -7.461,1.275 -10.58,6.489 -3.119,5.213 -0.715,12.391 -0.715,12.391 0,0 7.461,-1.276 10.58,-6.489" />
        </g>
        <g
           transform="translate(589.2002,279.2104)"
           id="g1461">
          <path
             id="path1463"
             style="fill:#8d5115;fill-opacity:1;fill-rule:nonzero;stroke:none"
             d="m 0,0 c -3.181,-0.818 -13.681,-6.334 -19.308,-9.713 -28.967,-17.391 -80.144,-50.933 -78.61,-53.489 1.534,-2.554 55.198,26.844 84.166,44.235 5.627,3.378 15.395,9.898 17.649,12.475 z" />
        </g>
        <g
           transform="translate(575.4482,260.2437)"
           id="g1465">
          <path
             id="path1467"
             style="fill:#ffffff;fill-opacity:1;fill-rule:nonzero;stroke:none"
             d="m 0,0 c 5.627,3.378 15.395,9.897 17.649,12.475 l -3.897,6.491 C 10.571,18.149 0.071,12.632 -5.556,9.254 -6.181,8.879 -6.819,8.494 -7.465,8.104 l 5.553,-9.248 C -1.266,-0.758 -0.625,-0.375 0,0" />
        </g>
        <g
           transform="translate(496.5762,217.4209)"
           id="g1469">
          <path
             id="path1471"
             style="fill:#774206;fill-opacity:1;fill-rule:nonzero;stroke:none"
             d="m 0,0 c -3.118,-1.312 -5.028,-1.863 -5.298,-1.414 -1.537,2.559 49.65,36.108 78.611,53.495 5.63,3.379 16.131,8.886 19.307,9.706 L 94.18,59.19 C 91.003,58.37 80.502,52.864 74.872,49.484 51.041,35.177 12.158,9.932 0,0" />
        </g>
        <g
           transform="translate(590.749,276.6182)"
           id="g1473">
          <path
             id="path1475"
             style="fill:#cadfef;fill-opacity:1;fill-rule:nonzero;stroke:none"
             d="m 0,0 c -3.175,-0.83 -13.673,-6.334 -19.308,-9.712 -0.626,-0.378 -1.252,-0.757 -1.892,-1.15 l -1.558,2.591 c 0.641,0.394 1.267,0.772 1.893,1.151 5.635,3.378 16.133,8.896 19.306,9.712 z" />
        </g>
        <g
           transform="translate(588.7959,274.7554)"
           id="g1477">
          <path
             id="path1479"
             style="fill:#3d4051;fill-opacity:1;fill-rule:nonzero;stroke:none"
             d="m 0,0 c -0.88,1.578 -1.125,3.571 -0.386,5.678 0.766,2.175 2.808,3.894 5.01,4.978 3.171,1.564 6.779,2.032 10.12,1.643 3.329,-0.396 6.389,-1.616 9.118,-3.221 C 23.415,9.03 22.988,8.978 22.556,8.905 22.382,8.885 22.201,8.845 22.034,8.813 18.95,8.235 16.379,6.946 14.617,4.054 13.533,2.266 12.717,0.315 11.244,-1.249 10.895,-1.628 10.503,-1.965 10.063,-2.28 6.312,-4.94 1.811,-3.329 0,0" />
        </g>
        <g
           transform="translate(308.6772,410.8252)"
           id="g1481">
          <path
             id="path1483"
             style="fill:#ffc32e;fill-opacity:1;fill-rule:nonzero;stroke:none"
             d="m 0,0 20.75,-38.957 c 0.589,-1.106 0.171,-2.477 -0.944,-3.071 l -5.839,-3.111 c -1.116,-0.594 -2.487,-0.176 -3.076,0.931 L -9.86,-5.252 c -0.589,1.106 -0.176,2.487 0.94,3.081 l 5.839,3.11 C -1.965,1.534 -0.589,1.106 0,0" />
        </g>
        <g
           transform="translate(299.7573,408.6489)"
           id="g1485">
          <path
             id="path1487"
             style="fill:#ffd524;fill-opacity:1;fill-rule:nonzero;stroke:none"
             d="m 0,0 c -1.109,-0.591 -1.529,-1.969 -0.938,-3.078 l 20.747,-38.95 c 0.59,-1.11 1.968,-1.53 3.077,-0.939 l 2.92,1.561 L 2.919,1.561 Z" />
        </g>
        <g
           transform="translate(297.7817,419.3994)"
           id="g1489">
          <path
             id="path1491"
             style="fill:#ffc32e;fill-opacity:1;fill-rule:nonzero;stroke:none"
             d="m 0,0 v 0 c -0.87,-0.463 -1.364,-1.414 -1.245,-2.392 l 0.215,-1.757 c 0.183,-1.494 0.639,-2.942 1.347,-4.271 l 1.422,-2.67 3.247,1.729 3.246,1.729 -1.422,2.67 C 6.103,-3.633 5.156,-2.446 4.017,-1.46 L 2.679,-0.302 C 1.934,0.343 0.869,0.463 0,0" />
        </g>
        <g
           transform="translate(299.8159,419.4863)"
           id="g1493">
          <path
             id="path1495"
             style="fill:#ffd524;fill-opacity:1;fill-rule:nonzero;stroke:none"
             d="m 0,0 c -0.057,-0.24 -0.061,-0.489 -0.035,-0.747 l 0.222,-1.759 c 0.179,-1.497 0.641,-2.943 1.348,-4.27 l 1.419,-2.665 -3.251,-1.732 -1.419,2.665 c -0.707,1.327 -1.169,2.773 -1.349,4.27 l -0.211,1.764 c -0.122,0.973 0.37,1.926 1.235,2.387 l 0.01,0.005 C -1.387,0.262 -0.641,0.276 0,0" />
        </g>
        <g
           transform="translate(309.1943,409.8535)"
           id="g1497">
          <path
             id="path1499"
             style="fill:#3d4051;fill-opacity:1;fill-rule:nonzero;stroke:none"
             d="m 0,0 1.066,-2.001 -9.859,-5.251 -1.066,2.001 z" />
        </g>
        <g
           transform="translate(311.3721,405.7656)"
           id="g1501">
          <path
             id="path1503"
             style="fill:#3d4051;fill-opacity:1;fill-rule:nonzero;stroke:none"
             d="m 0,0 1.066,-2.001 -9.86,-5.251 -1.065,2 z" />
        </g>
        <g
           transform="translate(316.3335,390.5825)"
           id="g1505">
          <path
             id="path1507"
             style="fill:#3d4051;fill-opacity:1;fill-rule:nonzero;stroke:none"
             d="M 0,0 C 2.011,-3.774 2.524,-7.43 1.146,-8.164 -0.232,-8.897 -2.979,-6.433 -4.99,-2.658 -7,1.117 -7.513,4.772 -6.136,5.506 -4.758,6.24 -2.011,3.775 0,0" />
        </g>
        <g
           transform="translate(325.5078,379.2266)"
           id="g1509">
          <path
             id="path1511"
             style="fill:#3d4051;fill-opacity:1;fill-rule:nonzero;stroke:none"
             d="m 0,0 1.066,-2 -9.859,-5.252 -1.066,2.001 z" />
        </g>
        <g
           transform="translate(327.6855,375.1387)"
           id="g1513">
          <path
             id="path1515"
             style="fill:#3d4051;fill-opacity:1;fill-rule:nonzero;stroke:none"
             d="m 0,0 1.065,-2.001 -9.859,-5.251 -1.065,2.001 z" />
        </g>
        <g
           transform="translate(494.5859,250.2563)"
           id="g1517">
          <path
             id="path1519"
             style="fill:#008c41;fill-opacity:1;fill-rule:nonzero;stroke:none"
             d="m 0,0 -29.323,-32.991 c -0.833,-0.936 -2.264,-1.02 -3.208,-0.181 l -4.946,4.395 c -0.944,0.84 -1.028,2.271 -0.196,3.207 L -8.35,7.421 c 0.832,0.937 2.271,1.029 3.216,0.189 L -0.189,3.215 C 0.755,2.375 0.832,0.937 0,0" />
        </g>
        <g
           transform="translate(489.4463,257.8647)"
           id="g1521">
          <path
             id="path1523"
             style="fill:#00b255;fill-opacity:1;fill-rule:nonzero;stroke:none"
             d="M 0,0 C -0.939,0.835 -2.377,0.75 -3.212,-0.189 L -32.53,-33.174 c -0.835,-0.94 -0.75,-2.378 0.189,-3.212 l 2.478,-2.197 32.341,36.388 z" />
        </g>
        <g
           transform="translate(498.8408,263.4517)"
           id="g1525">
          <path
             id="path1527"
             style="fill:#008c41;fill-opacity:1;fill-rule:nonzero;stroke:none"
             d="m 0,0 v 0 c -0.736,0.654 -1.799,0.788 -2.674,0.336 l -1.574,-0.812 c -1.338,-0.69 -2.537,-1.621 -3.537,-2.747 l -2.01,-2.261 2.749,-2.443 2.75,-2.444 2.01,2.262 c 1,1.125 1.784,2.425 2.312,3.835 l 0.622,1.657 C 0.994,-1.694 0.736,-0.654 0,0" />
        </g>
        <g
           transform="translate(499.6299,261.5742)"
           id="g1529">
          <path
             id="path1531"
             style="fill:#00b255;fill-opacity:1;fill-rule:nonzero;stroke:none"
             d="m 0,0 c -0.246,-0.03 -0.48,-0.113 -0.713,-0.227 l -1.573,-0.818 c -1.341,-0.689 -2.536,-1.624 -3.536,-2.748 l -2.005,-2.257 -2.754,2.447 2.006,2.257 c 0.999,1.124 2.195,2.059 3.536,2.748 l 1.581,0.811 c 0.869,0.452 1.934,0.322 2.667,-0.33 L -0.782,1.876 C -0.237,1.391 0.036,0.697 0,0" />
        </g>
        <g
           transform="translate(493.8545,249.4336)"
           id="g1533">
          <path
             id="path1535"
             style="fill:#3d4051;fill-opacity:1;fill-rule:nonzero;stroke:none"
             d="M 0,0 -1.506,-1.694 -9.855,5.727 -8.35,7.421 Z" />
        </g>
        <g
           transform="translate(490.7773,245.9717)"
           id="g1537">
          <path
             id="path1539"
             style="fill:#3d4051;fill-opacity:1;fill-rule:nonzero;stroke:none"
             d="M 0,0 -1.506,-1.694 -9.855,5.727 -8.35,7.421 Z" />
        </g>
        <g
           transform="translate(478.2637,236.0449)"
           id="g1541">
          <path
             id="path1543"
             style="fill:#3d4051;fill-opacity:1;fill-rule:nonzero;stroke:none"
             d="m 0,0 c -2.842,-3.196 -6.091,-4.947 -7.258,-3.91 -1.167,1.037 0.191,4.47 3.032,7.666 2.841,3.197 6.091,4.947 7.257,3.91 C 4.198,6.629 2.841,3.197 0,0" />
        </g>
        <g
           transform="translate(470.8018,223.4971)"
           id="g1545">
          <path
             id="path1547"
             style="fill:#3d4051;fill-opacity:1;fill-rule:nonzero;stroke:none"
             d="M 0,0 -1.507,-1.694 -9.855,5.727 -8.35,7.422 Z" />
        </g>
        <g
           transform="translate(467.7246,220.0352)"
           id="g1549">
          <path
             id="path1551"
             style="fill:#3d4051;fill-opacity:1;fill-rule:nonzero;stroke:none"
             d="M 0,0 -1.506,-1.694 -9.855,5.727 -8.35,7.421 Z" />
        </g>
        <g
           transform="translate(473.6504,269.8892)"
           id="g1553">
          <path
             id="path1555"
             style="fill:#ae1e0b;fill-opacity:1;fill-rule:nonzero;stroke:none"
             d="m 0,0 -42.418,-12.204 c -1.205,-0.347 -2.459,0.347 -2.809,1.562 l -1.829,6.357 c -0.349,1.216 0.345,2.47 1.549,2.816 l 42.418,12.204 c 1.204,0.347 2.469,-0.344 2.818,-1.559 L 1.559,2.818 C 1.908,1.604 1.204,0.346 0,0" />
        </g>
        <g
           transform="translate(473.375,279.0664)"
           id="g1557">
          <path
             id="path1559"
             style="fill:#ff582a;fill-opacity:1;fill-rule:nonzero;stroke:none"
             d="m 0,0 c -0.348,1.208 -1.608,1.905 -2.816,1.557 l -42.412,-12.202 c -1.207,-0.347 -1.904,-1.607 -1.556,-2.815 l 0.92,-3.18 46.784,13.46 z" />
        </g>
        <g
           transform="translate(484.3008,278.7651)"
           id="g1561">
          <path
             id="path1563"
             style="fill:#ae1e0b;fill-opacity:1;fill-rule:nonzero;stroke:none"
             d="M 0,0 V 0 C -0.272,0.947 -1.099,1.628 -2.08,1.714 L -3.844,1.87 c -1.5,0.131 -3.011,-0.015 -4.458,-0.431 l -2.907,-0.836 1.017,-3.535 1.017,-3.535 2.907,0.836 c 1.447,0.417 2.804,1.096 4.005,2.005 l 1.411,1.068 C -0.065,-1.963 0.272,-0.946 0,0" />
        </g>
        <g
           transform="translate(483.9639,276.7573)"
           id="g1565">
          <path
             id="path1567"
             style="fill:#ff582a;fill-opacity:1;fill-rule:nonzero;stroke:none"
             d="M 0,0 C -0.224,0.105 -0.467,0.161 -0.724,0.189 L -2.49,0.338 C -3.992,0.473 -5.503,0.322 -6.948,-0.094 l -2.902,-0.834 -1.017,3.54 2.9,0.834 c 1.446,0.416 2.956,0.567 4.458,0.432 l 1.77,-0.16 C -0.763,3.636 0.067,2.957 0.339,2.014 L 0.342,2.004 C 0.544,1.302 0.402,0.569 0,0" />
        </g>
        <g
           transform="translate(472.5928,269.5845)"
           id="g1569">
          <path
             id="path1571"
             style="fill:#3d4051;fill-opacity:1;fill-rule:nonzero;stroke:none"
             d="m 0,0 -2.179,-0.626 -3.089,10.735 2.179,0.626 z" />
        </g>
        <g
           transform="translate(468.1416,268.3042)"
           id="g1573">
          <path
             id="path1575"
             style="fill:#3d4051;fill-opacity:1;fill-rule:nonzero;stroke:none"
             d="m 0,0 -2.179,-0.627 -3.089,10.735 2.179,0.627 z" />
        </g>
        <g
           transform="translate(452.2588,266.6055)"
           id="g1577">
          <path
             id="path1579"
             style="fill:#3d4051;fill-opacity:1;fill-rule:nonzero;stroke:none"
             d="m 0,0 c -4.11,-1.183 -7.792,-0.925 -8.224,0.575 -0.431,1.5 2.551,3.675 6.662,4.858 C 2.547,6.615 6.229,6.358 6.661,4.857 7.093,3.357 4.11,1.182 0,0" />
        </g>
        <g
           transform="translate(439.2441,259.9902)"
           id="g1581">
          <path
             id="path1583"
             style="fill:#3d4051;fill-opacity:1;fill-rule:nonzero;stroke:none"
             d="m 0,0 -2.179,-0.627 -3.088,10.736 2.179,0.626 z" />
        </g>
        <g
           transform="translate(434.793,258.7095)"
           id="g1585">
          <path
             id="path1587"
             style="fill:#3d4051;fill-opacity:1;fill-rule:nonzero;stroke:none"
             d="m 0,0 -2.179,-0.626 -3.088,10.735 2.179,0.627 z" />
        </g>
      </g>
    </g>
  </g>
</svg>
