<svg xmlns="http://www.w3.org/2000/svg" width="150" height="152.048"><g fill="#008102"><g style="line-height:125%;text-align:center" font-weight="400" font-size="88.917" font-family="Georgia" letter-spacing="2.95" word-spacing="0" text-anchor="start" stroke-width=".15"><path d="M77.68 131.74h-8.475v-.893q.377-.025 1.17-.1.804-.089 1.106-.177.39-.125.591-.402.214-.29.214-.855v-8.827h-3.131v-1.057h.691q1.358 0 2.427-.503 1.082-.503 1.547-1.081h1.044q-.038.817-.076 1.911-.037 1.094-.037 1.962v7.457q0 .44.188.792.201.34.566.503.327.138 1.069.251.742.114 1.106.126v.893zM92.706 125.251q0 2.188-.691 4.125-.692 1.924-1.987 3.382-1.27 1.434-3.106 2.377-1.823.956-4.087 1.258l-.226-1.132 1.132-.201q2.703-.855 4.225-2.629 1.521-1.773 1.961-4.501-1.03.88-2.062 1.295-1.018.402-2.301.402-2.05 0-3.571-1.597-1.51-1.597-1.51-4.024 0-2.602 1.749-4.388 1.76-1.786 4.338-1.786 2.804 0 4.464 2 1.672 1.999 1.672 5.42zm-2.665-.15q0-2.943-.969-4.603-.955-1.672-2.527-1.672-1.497 0-2.414 1.295-.918 1.283-.918 3.546 0 2.037.93 3.27.943 1.232 2.515 1.232.98 0 1.798-.352.818-.365 1.522-1.157 0-.05.012-.201.025-.151.025-.428 0-.176.013-.428.013-.251.013-.503zM105.47 125.842q.829.654 1.37 1.685.553 1.031.553 2.578 0 2.704-1.848 4.464-1.849 1.76-4.69 1.76-2.201 0-3.723-1.043-1.521-1.044-1.521-2.427 0-.641.314-1.12.314-.477.968-.477.755 0 1.144.402.403.39.403.856 0 .402-.138 1.005-.139.604-.214.893.1.088.327.24.226.15.54.288.327.139.793.24.477.113 1.106.113.805 0 1.522-.327.716-.327 1.207-.969.54-.704.805-1.61.276-.892.276-2.275 0-1.773-.993-2.93-.98-1.17-2.59-1.17-1.006 0-1.887.378-.867.377-1.559 1.257l-.842-.327 1.068-9.079h9.004v2.239H98.88l-.654 5.331q.566-.402 1.484-.792.93-.402 2.037-.402.918 0 1.899.289.993.276 1.823.93zM122.293 119.065l-8.965 17.265h-1.572l8.437-15.97h-4.942q-1.094 0-1.71.025-.616.025-1.131.239-.39.163-.705.842-.301.667-.465 1.71h-.767v-4.929h11.82v.818z" style="-inkscape-font-specification:Georgia;text-align:start"/></g><path style="line-height:normal;text-indent:0;text-align:start;text-decoration-line:none;text-decoration-style:solid;text-decoration-color:#000;text-transform:none;block-progression:tb;white-space:normal;isolation:auto;mix-blend-mode:normal;solid-color:#000;solid-opacity:1" d="M14.877 0C6.71 0 0 6.71 0 14.877V137.17c0 8.167 6.71 14.877 14.877 14.877h120.246c8.167 0 14.877-6.71 14.877-14.877V14.877C150 6.71 143.29 0 135.123 0H61.96l8.15 8.689h65.014c3.503 0 6.188 2.685 6.188 6.188V137.17c0 3.504-2.685 6.188-6.188 6.188H14.877c-3.503 0-6.188-2.684-6.188-6.188V14.877c0-3.503 2.685-6.188 6.188-6.188h12.296L35.323 0H14.876z" color="#000" font-weight="400" font-family="sans-serif" overflow="visible"/><path d="M18.881 13.25c16.663 2.68 24.784-34.71 54.864 5.497-26.993-16.628-25.963 11.25-54.864-5.496z" fill-rule="evenodd"/><path d="M52.468 108.943h59.954c4.225 0 8.295-3.335 9.125-7.479l13.91-69.455c.83-4.143-1.904-7.479-6.13-7.479h-29.17l-7.36 12.844h7.487c3.394 0 5.59 2.679 4.923 6.007l-9.89 49.375c-.667 3.327-3.936 6.007-7.33 6.007H58.302zM35.866 37.31l-20.404 99.275h16.53l59.1-103.13v-9.07H26.432V37.31z"/></g></svg>